<?xml version="1.0" standalone="no"?>
<!DOCTYPE svg PUBLIC "-//W3C//DTD SVG 20010904//EN"
 "http://www.w3.org/TR/2001/REC-SVG-20010904/DTD/svg10.dtd">
<svg version="1.0" xmlns="http://www.w3.org/2000/svg"
 width="152.000000pt" height="152.000000pt" viewBox="0 0 152.000000 152.000000"
 preserveAspectRatio="xMidYMid meet">
<metadata>
Created by potrace 1.11, written by Peter Selinger 2001-2013
</metadata>
<g transform="translate(0.000000,152.000000) scale(0.100000,-0.100000)"
fill="#000000" stroke="none">
<path d="M640 1345 c-170 -38 -321 -150 -400 -297 -62 -113 -81 -197 -76 -325
18 -449 520 -717 913 -487 65 37 172 147 210 214 118 209 106 462 -32 659 -5
8 -39 45 -76 81 -67 68 -165 125 -259 150 -62 18 -214 20 -280 5z m-46 -229
c75 -31 108 -147 60 -213 -88 -120 -284 -43 -261 103 16 94 112 147 201 110z
m460 0 c75 -31 108 -148 60 -213 -90 -123 -288 -40 -260 109 16 88 115 140
200 104z m-215 -312 c30 -35 24 -89 -14 -121 -37 -32 -80 -30 -116 6 -39 39
-38 79 1 121 27 29 35 32 68 27 23 -4 46 -17 61 -33z m-245 -148 c71 -30 105
-122 70 -192 -28 -56 -65 -79 -128 -79 -91 1 -153 66 -143 151 11 101 108 159
201 120z m460 0 c50 -21 80 -69 81 -132 0 -90 -67 -151 -154 -140 -145 19
-176 203 -46 270 37 20 76 20 119 2z"/>
</g>
</svg>
